<svg id="Layer_1" data-name="Layer 1" xmlns="http://www.w3.org/2000/svg" viewBox="0 0 360 360"><title>icon-4-1-21</title><path d="M215.22,236.29a8.43,8.43,0,0,1-7.26-4.12l-50.4-84.81L134.8,182.19a8.41,8.41,0,0,1-7,3.82l-45.53.2h0a8.44,8.44,0,0,1,0-16.88l41-.18,27.67-42.36a8.44,8.44,0,0,1,14.32.31l49.74,83.69,19.27-35.42a8.43,8.43,0,0,1,7.41-4.41h21.3a8.44,8.44,0,0,1,0,16.88H246.59l-24,44a8.45,8.45,0,0,1-7.25,4.4Z"/><path d="M243.25,295.26h-121A109.28,109.28,0,0,1,13.11,186.11v-13a108.58,108.58,0,0,1,8.58-42.49,9.28,9.28,0,1,1,17.1,7.24,90,90,0,0,0-7.11,35.25v13a90.69,90.69,0,0,0,90.59,90.58h121a90.69,90.69,0,0,0,90.59-90.58v-13a90.69,90.69,0,0,0-90.59-90.58h-121A89.54,89.54,0,0,0,82,92a9.28,9.28,0,1,1-8.26-16.63A108,108,0,0,1,122.27,64h121A109.28,109.28,0,0,1,352.41,173.15v13A109.28,109.28,0,0,1,243.25,295.26Z"/><circle cx="51.02" cy="104.86" r="9.28"/><circle cx="283.97" cy="179.13" r="8.44"/></svg>